<svg width="124" height="100" viewBox="0 0 124 100" fill="none" xmlns="http://www.w3.org/2000/svg">
<path d="M77.2783 5.2236C76.7194 6.57173 75.1735 7.21155 73.8254 6.65269C72.4773 6.09382 71.8374 4.54791 72.3963 3.19978C72.9552 1.85166 74.5011 1.21184 75.8492 1.7707C77.1973 2.32956 77.8371 3.87548 77.2783 5.2236Z" fill="white" fill-opacity="0.5"/>
<mask id="path-2-inside-1_1556_5714" fill="white">
<path fill-rule="evenodd" clip-rule="evenodd" d="M65.2925 43.1138C68.3712 43.1138 71.2441 42.0779 73.5705 40.3131L78.627 44.6565C75.0444 47.7857 70.3856 49.6767 65.2925 49.6767C55.0533 49.6767 46.5694 42.0338 45.0563 32.0518L51.7279 32.0496C53.1517 38.4481 58.7586 43.1138 65.2925 43.1138ZM51.3794 28.9293C51.3792 28.904 51.3792 28.8787 51.3792 28.8534C51.3792 20.8732 57.7119 14.593 65.2925 14.593C72.8731 14.593 79.2058 20.8732 79.2058 28.8534C79.2058 32.4325 77.932 35.6697 75.8431 38.1516L80.8208 42.4274C83.9047 38.7823 85.7688 34.0392 85.7688 28.8534C85.7688 17.353 76.6012 8.03011 65.2925 8.03011C53.9838 8.03011 44.8163 17.353 44.8163 28.8534C44.8163 28.8795 44.8163 28.9055 44.8164 28.9315L51.3794 28.9293Z"/>
</mask>
<path fill-rule="evenodd" clip-rule="evenodd" d="M65.2925 43.1138C68.3712 43.1138 71.2441 42.0779 73.5705 40.3131L78.627 44.6565C75.0444 47.7857 70.3856 49.6767 65.2925 49.6767C55.0533 49.6767 46.5694 42.0338 45.0563 32.0518L51.7279 32.0496C53.1517 38.4481 58.7586 43.1138 65.2925 43.1138ZM51.3794 28.9293C51.3792 28.904 51.3792 28.8787 51.3792 28.8534C51.3792 20.8732 57.7119 14.593 65.2925 14.593C72.8731 14.593 79.2058 20.8732 79.2058 28.8534C79.2058 32.4325 77.932 35.6697 75.8431 38.1516L80.8208 42.4274C83.9047 38.7823 85.7688 34.0392 85.7688 28.8534C85.7688 17.353 76.6012 8.03011 65.2925 8.03011C53.9838 8.03011 44.8163 17.353 44.8163 28.8534C44.8163 28.8795 44.8163 28.9055 44.8164 28.9315L51.3794 28.9293Z" fill="#69E15F"/>
<path d="M73.5705 40.3131L74.1584 39.6286L73.6057 39.1539L73.0252 39.5942L73.5705 40.3131ZM65.2925 43.1138L65.2925 44.0161L65.2925 44.0161L65.2925 43.1138ZM78.627 44.6565L79.2205 45.3361L80.0051 44.6508L79.2149 43.9721L78.627 44.6565ZM65.2925 49.6767L65.2925 48.7745L65.2925 48.7745L65.2925 49.6767ZM45.0563 32.0518L45.056 31.1496L44.007 31.15L44.1642 32.1871L45.0563 32.0518ZM51.7279 32.0496L52.6087 31.8536L52.4515 31.147L51.7276 31.1473L51.7279 32.0496ZM51.3794 28.9293L51.3797 29.8315L52.2862 29.8312L52.2816 28.9247L51.3794 28.9293ZM51.3792 28.8534L52.2814 28.8534L52.2814 28.8534L51.3792 28.8534ZM65.2925 14.593L65.2925 15.4953L65.2925 15.4953L65.2925 14.593ZM79.2058 28.8534L80.1081 28.8534L80.1081 28.8534L79.2058 28.8534ZM75.8431 38.1516L75.1528 37.5706L74.5776 38.254L75.2552 38.8361L75.8431 38.1516ZM80.8208 42.4274L80.2329 43.1118L80.9225 43.7042L81.5096 43.0102L80.8208 42.4274ZM85.7688 28.8534L86.671 28.8534L86.671 28.8534L85.7688 28.8534ZM65.2925 8.03011L65.2925 7.12785L65.2925 8.03011ZM44.8163 28.8534L43.914 28.8534L43.914 28.8534L44.8163 28.8534ZM44.8164 28.9315L43.9141 28.9348L43.9174 29.8341L44.8167 29.8338L44.8164 28.9315ZM73.0252 39.5942C70.8486 41.2454 68.1656 42.2115 65.2925 42.2115L65.2925 44.0161C68.5767 44.0161 71.6395 42.9105 74.1158 41.0319L73.0252 39.5942ZM79.2149 43.9721L74.1584 39.6286L72.9826 40.9975L78.0391 45.3409L79.2149 43.9721ZM65.2925 50.579C70.6137 50.579 75.4811 48.6023 79.2205 45.3361L78.0335 43.977C74.6076 46.9692 70.1575 48.7745 65.2925 48.7745L65.2925 50.579ZM44.1642 32.1871C45.7415 42.5922 54.5893 50.579 65.2925 50.579L65.2925 48.7745C55.5173 48.7745 47.3974 41.4755 45.9484 31.9166L44.1642 32.1871ZM51.7276 31.1473L45.056 31.1496L45.0566 32.9541L51.7283 32.9518L51.7276 31.1473ZM65.2925 42.2115C59.1985 42.2115 53.9443 37.8564 52.6087 31.8536L50.8472 32.2455C52.359 39.0398 58.3187 44.0161 65.2925 44.0161L65.2925 42.2115ZM52.2816 28.9247C52.2815 28.901 52.2814 28.8772 52.2814 28.8534L50.4769 28.8534C50.4769 28.8802 50.477 28.907 50.4771 28.9338L52.2816 28.9247ZM52.2814 28.8534C52.2814 21.3592 58.2225 15.4953 65.2925 15.4953L65.2925 13.6908C57.2014 13.6908 50.4769 20.3872 50.4769 28.8534L52.2814 28.8534ZM65.2925 15.4953C72.3625 15.4953 78.3036 21.3592 78.3036 28.8534L80.1081 28.8534C80.1081 20.3872 73.3836 13.6908 65.2925 13.6908L65.2925 15.4953ZM78.3036 28.8534C78.3036 32.2142 77.1085 35.2469 75.1528 37.5706L76.5334 38.7326C78.7555 36.0924 80.1081 32.6508 80.1081 28.8534L78.3036 28.8534ZM75.2552 38.8361L80.2329 43.1118L81.4087 41.743L76.431 37.4672L75.2552 38.8361ZM81.5096 43.0102C84.7272 39.207 86.671 34.2589 86.671 28.8534L84.8665 28.8534C84.8665 33.8195 83.0822 38.3575 80.132 41.8447L81.5096 43.0102ZM86.671 28.8534C86.671 16.8691 77.1138 7.12785 65.2925 7.12785L65.2925 8.93237C76.0887 8.93237 84.8665 17.837 84.8665 28.8534L86.671 28.8534ZM65.2925 7.12785C53.4713 7.12785 43.914 16.8691 43.914 28.8534L45.7185 28.8534C45.7185 17.837 54.4963 8.93237 65.2925 8.93237L65.2925 7.12785ZM43.914 28.8534C43.914 28.8805 43.9141 28.9077 43.9141 28.9348L45.7187 28.9283C45.7186 28.9033 45.7185 28.8784 45.7185 28.8534L43.914 28.8534ZM44.8167 29.8338L51.3797 29.8315L51.3791 28.027L44.8161 28.0293L44.8167 29.8338Z" fill="#69E15F" mask="url(#path-2-inside-1_1556_5714)"/>
<path fill-rule="evenodd" clip-rule="evenodd" d="M54.2071 26.1335L40.5598 26.0475C39.9772 26.0438 39.4672 26.3599 39.1963 26.8314C39.17 26.5682 39.1165 26.3037 39.0338 26.0415C38.3858 23.987 36.1951 22.8468 34.1407 23.4947C32.0863 24.1426 30.946 26.3333 31.594 28.3878C32.2419 30.4422 34.4326 31.5824 36.487 30.9345C37.8237 30.513 38.7734 29.4383 39.0953 28.173C39.3205 28.7518 39.8813 29.1637 40.5401 29.1678L53.8714 29.2518C53.844 28.1762 53.9619 27.1302 54.2071 26.1335ZM73.7703 36.7502C74.464 35.9675 75.0535 35.089 75.518 34.1379L86.5468 43.6115C86.9442 43.9529 87.1277 44.4509 87.0842 44.9357C87.7169 44.4131 88.5191 44.0851 89.4022 44.0479C91.5545 43.9575 93.3726 45.6289 93.4631 47.7812C93.5536 49.9335 91.8822 51.7516 89.7299 51.8421C87.5776 51.9326 85.7595 50.2611 85.669 48.1088C85.6413 47.451 85.7783 46.8243 86.0433 46.2687C85.5356 46.4449 84.9506 46.3539 84.5136 45.9785L73.7703 36.7502Z" fill="#69E15F"/>
<path fill-rule="evenodd" clip-rule="evenodd" d="M65.525 34.6912C68.5229 34.5651 70.9718 31.9661 70.8361 28.739C70.7004 25.5118 68.042 23.1275 65.0442 23.2535C62.0463 23.3796 59.5974 25.9786 59.7331 29.2058C59.8687 32.4329 62.5271 34.8172 65.525 34.6912ZM65.7066 39.0101C71.1579 38.7809 75.3881 34.1011 75.155 28.5574C74.9219 23.0137 70.3139 18.7055 64.8626 18.9347C59.4113 19.1638 55.1811 23.8436 55.4142 29.3873C55.6472 34.931 60.2553 39.2392 65.7066 39.0101Z" fill="#69E15F"/>
<path fill-rule="evenodd" clip-rule="evenodd" d="M74.4527 7.63721C74.6063 7.23457 74.3106 6.74243 73.7925 6.53799C73.2743 6.33355 72.7298 6.49422 72.5763 6.89685L68.4551 17.706C69.1056 17.8969 69.7332 18.1453 70.3318 18.4456L74.4527 7.63721Z" fill="white"/>
<g filter="url(#filter0_f_1556_5714)">
<path d="M109.717 80.9443C109.717 81.4711 110.06 81.9057 110.745 82.2482C111.456 82.5643 112.312 82.854 113.313 83.1175C114.314 83.3545 115.315 83.6706 116.316 84.0658C117.317 84.4346 118.16 85.0668 118.845 85.9624C119.556 86.858 119.912 87.9775 119.912 89.321C119.912 91.3493 119.148 92.9166 117.62 94.023C116.118 95.103 114.235 95.643 111.97 95.643C107.913 95.643 105.147 94.0757 103.672 90.941L108.097 88.4517C108.677 90.1639 109.968 91.02 111.97 91.02C113.787 91.02 114.696 90.4537 114.696 89.321C114.696 88.7941 114.34 88.3727 113.629 88.0566C112.944 87.7141 112.101 87.4112 111.1 87.1478C110.099 86.8843 109.098 86.5551 108.097 86.1599C107.096 85.7648 106.24 85.1458 105.529 84.3028C104.844 83.4336 104.502 82.3536 104.502 81.0628C104.502 79.1135 105.213 77.5857 106.635 76.4793C108.084 75.3466 109.875 74.7803 112.009 74.7803C113.616 74.7803 115.078 75.1491 116.395 75.8866C117.712 76.5979 118.753 77.6252 119.516 78.9686L115.17 81.3394C114.538 79.996 113.484 79.3242 112.009 79.3242C111.351 79.3242 110.797 79.4691 110.35 79.7589C109.928 80.0486 109.717 80.4438 109.717 80.9443Z" fill="#69E15F"/>
<path d="M95.4041 75.334H100.501V95.0904H95.4041V92.8776C94.1661 94.7216 92.2036 95.6435 89.5167 95.6435C87.3567 95.6435 85.5655 94.9191 84.143 93.4703C82.7469 92.0215 82.0488 90.0196 82.0488 87.4644V75.334H87.146V86.8322C87.146 88.1493 87.5016 89.1635 88.2128 89.8747C88.924 90.5596 89.8723 90.902 91.0577 90.902C92.3748 90.902 93.4285 90.4937 94.2188 89.6771C95.009 88.8605 95.4041 87.6356 95.4041 86.0024V75.334Z" fill="#69E15F"/>
<path d="M73.3784 78.7317C73.8526 77.4673 74.6296 76.519 75.7096 75.8868C76.816 75.2546 78.0409 74.9385 79.3843 74.9385V80.6283C77.8302 80.4439 76.434 80.76 75.196 81.5766C73.9843 82.3932 73.3784 83.7498 73.3784 85.6464V95.09H68.2812V75.3336H73.3784V78.7317Z" fill="#69E15F"/>
<path d="M58.5617 75.3335H63.6589V95.0898H58.5617V92.7586C57.0339 94.6815 54.887 95.643 52.1211 95.643C49.4869 95.643 47.2215 94.642 45.3249 92.64C43.4547 90.6117 42.5195 88.1356 42.5195 85.2116C42.5195 82.2877 43.4547 79.8247 45.3249 77.8228C47.2215 75.7944 49.4869 74.7803 52.1211 74.7803C54.887 74.7803 57.0339 75.7418 58.5617 77.6647V75.3335ZM49.1577 89.2419C50.185 90.2693 51.4889 90.7829 53.0694 90.7829C54.6499 90.7829 55.9539 90.2693 56.9812 89.2419C58.0349 88.1883 58.5617 86.8448 58.5617 85.2116C58.5617 83.5784 58.0349 82.2482 56.9812 81.2209C55.9539 80.1672 54.6499 79.6403 53.0694 79.6403C51.4889 79.6403 50.185 80.1672 49.1577 81.2209C48.1303 82.2482 47.6167 83.5784 47.6167 85.2116C47.6167 86.8448 48.1303 88.1883 49.1577 89.2419Z" fill="#69E15F"/>
<path d="M33.7852 95.0904V66.2461H38.8823V95.0904H33.7852Z" fill="#69E15F"/>
<path d="M18.4705 95.6442C14.3085 95.6442 10.8709 94.2612 8.1577 91.4954C5.44449 88.7295 4.08789 85.3182 4.08789 81.2616C4.08789 77.1786 5.44449 73.7673 8.1577 71.0277C10.8709 68.2619 14.3085 66.8789 18.4705 66.8789C20.973 66.8789 23.2779 67.4716 25.3853 68.657C27.519 69.816 29.1785 71.3965 30.3639 73.3985L25.6619 76.1249C24.977 74.8868 24.0023 73.9253 22.7379 73.2405C21.4735 72.5292 20.051 72.1736 18.4705 72.1736C15.7837 72.1736 13.6105 73.0166 11.9509 74.7024C10.3177 76.3883 9.50114 78.5747 9.50114 81.2616C9.50114 83.9221 10.3177 86.0953 11.9509 87.7812C13.6105 89.467 15.7837 90.31 18.4705 90.31C20.051 90.31 21.4735 89.9675 22.7379 89.2826C24.0287 88.5714 25.0033 87.6099 25.6619 86.3982L30.3639 89.1246C29.1785 91.1266 27.5321 92.7203 25.4248 93.9056C23.3174 95.0647 20.9994 95.6442 18.4705 95.6442Z" fill="#69E15F"/>
</g>
<path d="M109.717 80.9443C109.717 81.4711 110.06 81.9057 110.745 82.2482C111.456 82.5643 112.312 82.854 113.313 83.1175C114.314 83.3545 115.315 83.6706 116.316 84.0658C117.317 84.4346 118.16 85.0668 118.845 85.9624C119.556 86.858 119.912 87.9775 119.912 89.321C119.912 91.3493 119.148 92.9166 117.62 94.023C116.118 95.103 114.235 95.643 111.97 95.643C107.913 95.643 105.147 94.0757 103.672 90.941L108.097 88.4517C108.677 90.1639 109.968 91.02 111.97 91.02C113.787 91.02 114.696 90.4537 114.696 89.321C114.696 88.7941 114.34 88.3727 113.629 88.0566C112.944 87.7141 112.101 87.4112 111.1 87.1478C110.099 86.8843 109.098 86.5551 108.097 86.1599C107.096 85.7648 106.24 85.1458 105.529 84.3028C104.844 83.4336 104.502 82.3536 104.502 81.0628C104.502 79.1135 105.213 77.5857 106.635 76.4793C108.084 75.3466 109.875 74.7803 112.009 74.7803C113.616 74.7803 115.078 75.1491 116.395 75.8866C117.712 76.5979 118.753 77.6252 119.516 78.9686L115.17 81.3394C114.538 79.996 113.484 79.3242 112.009 79.3242C111.351 79.3242 110.797 79.4691 110.35 79.7589C109.928 80.0486 109.717 80.4438 109.717 80.9443Z" fill="#69E15F"/>
<path d="M95.4041 75.334H100.501V95.0904H95.4041V92.8776C94.1661 94.7216 92.2036 95.6435 89.5167 95.6435C87.3567 95.6435 85.5655 94.9191 84.143 93.4703C82.7469 92.0215 82.0488 90.0196 82.0488 87.4644V75.334H87.146V86.8322C87.146 88.1493 87.5016 89.1635 88.2128 89.8747C88.924 90.5596 89.8723 90.902 91.0577 90.902C92.3748 90.902 93.4285 90.4937 94.2188 89.6771C95.009 88.8605 95.4041 87.6356 95.4041 86.0024V75.334Z" fill="#69E15F"/>
<path d="M73.3784 78.7317C73.8526 77.4673 74.6296 76.519 75.7096 75.8868C76.816 75.2546 78.0409 74.9385 79.3843 74.9385V80.6283C77.8302 80.4439 76.434 80.76 75.196 81.5766C73.9843 82.3932 73.3784 83.7498 73.3784 85.6464V95.09H68.2812V75.3336H73.3784V78.7317Z" fill="#69E15F"/>
<path d="M58.5617 75.3335H63.6589V95.0898H58.5617V92.7586C57.0339 94.6815 54.887 95.643 52.1211 95.643C49.4869 95.643 47.2215 94.642 45.3249 92.64C43.4547 90.6117 42.5195 88.1356 42.5195 85.2116C42.5195 82.2877 43.4547 79.8247 45.3249 77.8228C47.2215 75.7944 49.4869 74.7803 52.1211 74.7803C54.887 74.7803 57.0339 75.7418 58.5617 77.6647V75.3335ZM49.1577 89.2419C50.185 90.2693 51.4889 90.7829 53.0694 90.7829C54.6499 90.7829 55.9539 90.2693 56.9812 89.2419C58.0349 88.1883 58.5617 86.8448 58.5617 85.2116C58.5617 83.5784 58.0349 82.2482 56.9812 81.2209C55.9539 80.1672 54.6499 79.6403 53.0694 79.6403C51.4889 79.6403 50.185 80.1672 49.1577 81.2209C48.1303 82.2482 47.6167 83.5784 47.6167 85.2116C47.6167 86.8448 48.1303 88.1883 49.1577 89.2419Z" fill="#69E15F"/>
<path d="M33.7852 95.0904V66.2461H38.8823V95.0904H33.7852Z" fill="#69E15F"/>
<path d="M18.4705 95.6442C14.3085 95.6442 10.8709 94.2612 8.1577 91.4954C5.44449 88.7295 4.08789 85.3182 4.08789 81.2616C4.08789 77.1786 5.44449 73.7673 8.1577 71.0277C10.8709 68.2619 14.3085 66.8789 18.4705 66.8789C20.973 66.8789 23.2779 67.4716 25.3853 68.657C27.519 69.816 29.1785 71.3965 30.3639 73.3985L25.6619 76.1249C24.977 74.8868 24.0023 73.9253 22.7379 73.2405C21.4735 72.5292 20.051 72.1736 18.4705 72.1736C15.7837 72.1736 13.6105 73.0166 11.9509 74.7024C10.3177 76.3883 9.50114 78.5747 9.50114 81.2616C9.50114 83.9221 10.3177 86.0953 11.9509 87.7812C13.6105 89.467 15.7837 90.31 18.4705 90.31C20.051 90.31 21.4735 89.9675 22.7379 89.2826C24.0287 88.5714 25.0033 87.6099 25.6619 86.3982L30.3639 89.1246C29.1785 91.1266 27.5321 92.7203 25.4248 93.9056C23.3174 95.0647 20.9994 95.6442 18.4705 95.6442Z" fill="#69E15F"/>
<defs>
<filter id="filter0_f_1556_5714" x="0.0878906" y="62.2461" width="123.824" height="37.3984" filterUnits="userSpaceOnUse" color-interpolation-filters="sRGB">
<feFlood flood-opacity="0" result="BackgroundImageFix"/>
<feBlend mode="normal" in="SourceGraphic" in2="BackgroundImageFix" result="shape"/>
<feGaussianBlur stdDeviation="2" result="effect1_foregroundBlur_1556_5714"/>
</filter>
</defs>
</svg>
